<svg xmlns="http://www.w3.org/2000/svg" fill="none" viewBox="0 0 533 664"><g clip-path="url(#a)"><path fill="#000000" d="M260.7 2.2A797 797 0 0 0 205.8 73c-25.2 37-41.6 74.4-47.3 107.5-2.2 12.8-3 38-1.6 49.5 4.7 37.5 21.4 68.2 56.4 103.3 9.8 9.8 29.8 27.3 38 33.2l2.7 2-.2 63.3-.3 63.4-3.7-16.4c-10-43.2-24.6-77.2-44.8-104.3-36.9-49.3-92.4-84.1-164.5-103.1-19.1-5-32.3-7.3-35.7-6.2C.5 266.7 0 270 0 298.9c0 34.9 2.1 57 7.6 80.1 15.6 65.6 56.8 118.1 120.1 152.9a485 485 0 0 0 54.3 24.8c34.4 13.9 48.5 21.8 58.9 32.8 11.3 12.1 13 18.4 13.1 48 0 15.2.2 17.4 2 20.3 4.2 6.9 13 7.9 18.6 2.1l2.9-3 .6-22.7c.5-16 1.1-24.1 2.2-27.5 4.5-14 18.9-27.3 40.5-37.4 5.4-2.5 19.4-8.3 31.2-12.9 52.2-20.6 83.3-39.6 112.6-68.8 14.5-14.5 25.3-28 34.2-42.7 25-41.7 34.9-86.1 34-151.6-.4-30.7-.1-30.2-17.3-27.4a497 497 0 0 0-51.7 13.1 279 279 0 0 0-115.3 71.1 209 209 0 0 0-36.4 48.6c-13 22.7-26 59.4-32.6 92.3-1.1 5.6-1.3-2-1.4-57.7l-.1-64.2 12-10.1c49.3-41.5 74.3-76.3 83.2-116.1 2-9.1 2.3-12.9 2.2-31.4 0-15.7-.5-23.5-1.8-31-7.5-41.5-28.1-82.7-67.3-134.8-9.7-12.9-33-41.7-35.5-44-2.8-2.4-7.2-2.1-10.1.5m20.2 58.3c28.6 37.8 46 68 55.5 96.5 5.9 17.6 7.5 25.5 8.5 42.3 3 47.8-10.7 78.1-54.2 119.2L278.5 330l-.5-73.8-.5-73.7-2.2-3.1c-5-7-14.5-6.7-18.8.6-2 3.4-2 4.7-2 76.2 0 40.4-.4 72.8-.9 72.8-1.9 0-38.5-38-43.8-45.5a116 116 0 0 1-23.1-73c.2-47.7 21.3-94.5 71.2-158.1l8.4-10.7 2.4 2.9zm-235 241.4c65.3 21.9 115.9 57.5 144.6 101.9 12.3 19.2 25 50.8 34.9 87.2 5.1 18.7 15.6 60 15.6 61.2a383.5 383.5 0 0 0-51.5-24.2 463 463 0 0 1-61-29.5c-59-37.2-91.4-90.3-98.5-161.4-1.4-13.9-1.3-40.1.1-40.1.5 0 7.7 2.2 15.8 4.9m381.2 90c3.2 3.2 3.9 8.7 1.6 12.7-.7 1.2-30.7 32-66.8 68.5-66.6 67.4-72.9 73.9-78 81.8-3.6 5.6-3.6 4.5.1-10.3q5.2-21.6 19.6-41.6c6.6-9.3 30.3-33.7 91-93.3 20.7-20.4 21.1-20.7 25.3-20.7 3.4 0 4.9.6 7.2 2.9"/></g><defs><clipPath id="a"><path fill="#fff" d="M0 0h533v664H0z"/></clipPath></defs></svg>